<svg width="199" height="118" viewBox="0 0 199 118" fill="none" xmlns="http://www.w3.org/2000/svg">
<path d="M58.832 117.813C26.4146 117.813 0.131958 91.5335 0.131958 59.2669C0.131958 27.0002 26.4146 0.720241 58.832 0.720241C81.3373 0.720241 101.009 13.6268 110.765 32.3601C108.091 32.5068 105.415 33.2935 103.055 34.4002C94.2413 18.9735 77.716 8.58691 58.832 8.58691C30.82 8.58691 8.00129 31.2535 8.00129 59.2669C8.00129 87.1202 30.82 109.947 58.832 109.947C77.716 109.947 94.2413 99.4003 103.055 83.9736C105.415 85.0803 108.091 85.8668 110.765 86.0135C101.165 104.907 81.4946 117.813 58.832 117.813Z" fill="#FF98AA"/>
<path d="M47.8359 39.0667H56.1893V68.3599H74.2933V75.1599H47.8359V39.0667" fill="#3345AB"/>
<path d="M101.627 67.2001C103.348 66.2268 104.693 64.8534 105.676 63.0934C106.652 61.3467 107.144 59.3469 107.144 57.1202C107.144 54.8802 106.652 52.8935 105.676 51.1335C104.693 49.3735 103.348 48.0134 101.627 47.0267C99.9053 46.0534 97.984 45.56 95.848 45.56C93.72 45.56 91.7907 46.0534 90.0773 47.0267C88.356 48.0134 87.0026 49.3735 86.028 51.1335C85.044 52.8935 84.552 54.8802 84.552 57.1202C84.552 59.3469 85.044 61.3467 86.028 63.0934C87.0026 64.8534 88.356 66.2268 90.0773 67.2001C91.7907 68.1735 93.72 68.6668 95.848 68.6668C97.984 68.6668 99.9053 68.1735 101.627 67.2001ZM85.72 73.36C82.708 71.7467 80.3493 69.5201 78.6506 66.6801C76.952 63.8401 76.1 60.6535 76.1 57.1202C76.1 53.5735 76.952 50.3868 78.6506 47.5468C80.3493 44.7068 82.708 42.4801 85.72 40.8668C88.724 39.2535 92.1053 38.4403 95.848 38.4403C99.5973 38.4403 102.972 39.2535 105.96 40.8668C108.949 42.4801 111.308 44.7068 113.023 47.5468C114.744 50.3868 115.604 53.5735 115.604 57.1202C115.604 60.6535 114.744 63.8401 113.023 66.6801C111.308 69.5201 108.949 71.7467 105.96 73.36C102.972 74.9734 99.5973 75.7869 95.848 75.7869C92.1053 75.7869 88.724 74.9734 85.72 73.36Z" fill="#3345AB"/>
<path d="M146.295 56.5468H153.925V71.1869C151.967 72.6802 149.699 73.8001 147.117 74.6001C144.543 75.3868 141.945 75.7869 139.333 75.7869C135.584 75.7869 132.209 74.9869 129.221 73.3869C126.231 71.7869 123.88 69.5735 122.181 66.7335C120.484 63.8935 119.631 60.6935 119.631 57.1202C119.631 53.5469 120.484 50.3334 122.181 47.4934C123.88 44.6534 126.247 42.4403 129.275 40.8403C132.303 39.2403 135.707 38.4403 139.487 38.4403C142.645 38.4403 145.519 38.9736 148.101 40.0403C150.675 41.1069 152.841 42.6534 154.593 44.6801L149.231 49.6403C146.656 46.9203 143.544 45.56 139.893 45.56C137.596 45.56 135.545 46.0401 133.761 47.0001C131.972 47.9735 130.581 49.3201 129.583 51.0801C128.583 52.8401 128.084 54.8535 128.084 57.1202C128.084 59.3469 128.583 61.3467 129.583 63.0934C130.581 64.8534 131.964 66.2268 133.731 67.2001C135.507 68.1735 137.528 68.6668 139.795 68.6668C142.199 68.6668 144.367 68.1469 146.295 67.1202V56.5468" fill="#3345AB"/>
<path d="M184.924 67.2001C186.645 66.2268 187.989 64.8534 188.973 63.0934C189.949 61.3467 190.441 59.3469 190.441 57.1202C190.441 54.8802 189.949 52.8935 188.973 51.1335C187.989 49.3735 186.645 48.0134 184.924 47.0267C183.203 46.0534 181.281 45.56 179.145 45.56C177.017 45.56 175.088 46.0534 173.375 47.0267C171.653 48.0134 170.301 49.3735 169.325 51.1335C168.341 52.8935 167.849 54.8802 167.849 57.1202C167.849 59.3469 168.341 61.3467 169.325 63.0934C170.301 64.8534 171.653 66.2268 173.375 67.2001C175.088 68.1735 177.017 68.6668 179.145 68.6668C181.281 68.6668 183.203 68.1735 184.924 67.2001ZM169.017 73.36C166.005 71.7467 163.645 69.5201 161.948 66.6801C160.249 63.8401 159.396 60.6535 159.396 57.1202C159.396 53.5735 160.249 50.3868 161.948 47.5468C163.645 44.7068 166.005 42.4801 169.017 40.8668C172.023 39.2535 175.403 38.4403 179.145 38.4403C182.895 38.4403 186.268 39.2535 189.257 40.8668C192.247 42.4801 194.607 44.7068 196.32 47.5468C198.041 50.3868 198.901 53.5735 198.901 57.1202C198.901 60.6535 198.041 63.8401 196.32 66.6801C194.607 69.5201 192.247 71.7467 189.257 73.36C186.268 74.9734 182.895 75.7869 179.145 75.7869C175.403 75.7869 172.023 74.9734 169.017 73.36Z" fill="#3345AB"/>
</svg>
