<svg width="1940" height="1628" viewBox="0 0 1940 1628" fill="none" xmlns="http://www.w3.org/2000/svg">
<path d="M1909.27 1612.4C1909.27 1604.04 1916.04 1597.25 1924.4 1597.25C1932.76 1597.25 1939.53 1604.04 1939.53 1612.4C1939.53 1620.75 1932.76 1627.53 1924.4 1627.53C1916.04 1627.53 1909.27 1620.75 1909.27 1612.4Z" fill="#333333"/>
<path d="M1909.27 1493.25C1909.27 1484.89 1916.04 1478.12 1924.4 1478.12C1932.76 1478.12 1939.53 1484.89 1939.53 1493.25C1939.53 1501.61 1932.76 1508.39 1924.4 1508.39C1916.04 1508.39 1909.27 1501.61 1909.27 1493.25Z" fill="#333333"/>
<path d="M1909.27 1374.12C1909.27 1365.76 1916.04 1358.99 1924.4 1358.99C1932.76 1358.99 1939.53 1365.76 1939.53 1374.12C1939.53 1382.48 1932.76 1389.25 1924.4 1389.25C1916.04 1389.25 1909.27 1382.48 1909.27 1374.12Z" fill="#333333"/>
<path d="M1930.27 1293.48H1918.53V972.587H1930.27V1293.48Z" fill="#333333"/>
<path d="M1634.92 147.44C1575.07 147.44 1526.37 196.133 1526.37 256C1526.37 315.84 1575.07 364.533 1634.92 364.533C1694.77 364.533 1743.47 315.84 1743.47 256C1743.47 196.133 1694.77 147.44 1634.92 147.44ZM1634.92 371.146C1571.41 371.146 1519.76 319.48 1519.76 256C1519.76 192.493 1571.41 140.826 1634.92 140.826C1698.41 140.826 1750.08 192.493 1750.08 256C1750.08 319.48 1698.41 371.146 1634.92 371.146Z" fill="#3345AB"/>
<path d="M1562.83 290.04H1545.76L1483.31 116.88H1500.37L1562.83 290.04Z" fill="#B9C5ED"/>
<path d="M1610.13 290.04H1593.07L1530.63 116.88H1547.69L1610.13 290.04Z" fill="#B9C5ED"/>
<path d="M1657.45 290.04H1640.39L1577.95 116.88H1595.01L1657.45 290.04Z" fill="#B9C5ED"/>
<path d="M1704.77 290.04H1687.71L1625.27 116.88H1642.33L1704.77 290.04Z" fill="#B9C5ED"/>
<path d="M19.4794 671.227C-118.334 53.2666 542.693 -164.933 913.28 211.533C1283.87 588 1599.08 311.893 1721.53 240.987C1843.99 170.093 2145.16 875.507 1532.31 1261.27C969.826 1615.32 160.226 1302.36 19.4794 671.227Z" fill="#F2F2F2"/>
<path d="M399.386 4.20005C399.386 6.52005 397.493 8.41333 395.173 8.41333C392.853 8.41333 390.973 6.52005 390.973 4.20005C390.973 1.88005 392.853 4.93296e-05 395.173 4.93296e-05C397.493 4.93296e-05 399.386 1.88005 399.386 4.20005Z" fill="#3345AB"/>
<path d="M429.786 4.20005C429.786 6.52005 427.906 8.41333 425.573 8.41333C423.253 8.41333 421.373 6.52005 421.373 4.20005C421.373 1.88005 423.253 4.93296e-05 425.573 4.93296e-05C427.906 4.93296e-05 429.786 1.88005 429.786 4.20005Z" fill="#3345AB"/>
<path d="M460.187 4.20005C460.187 6.52005 458.307 8.41333 455.987 8.41333C453.667 8.41333 451.773 6.52005 451.773 4.20005C451.773 1.88005 453.667 4.93296e-05 455.987 4.93296e-05C458.307 4.93296e-05 460.187 1.88005 460.187 4.20005Z" fill="#3345AB"/>
<path d="M490.6 4.20005C490.6 6.52005 488.707 8.41333 486.387 8.41333C484.067 8.41333 482.187 6.52005 482.187 4.20005C482.187 1.88005 484.067 4.93296e-05 486.387 4.93296e-05C488.707 4.93296e-05 490.6 1.88005 490.6 4.20005Z" fill="#3345AB"/>
<path d="M399.386 37.7202C399.386 40.0402 397.493 41.9202 395.173 41.9202C392.853 41.9202 390.973 40.0402 390.973 37.7202C390.973 35.4002 392.853 33.5068 395.173 33.5068C397.493 33.5068 399.386 35.4002 399.386 37.7202Z" fill="#3345AB"/>
<path d="M429.786 37.7202C429.786 40.0402 427.906 41.9202 425.573 41.9202C423.253 41.9202 421.373 40.0402 421.373 37.7202C421.373 35.4002 423.253 33.5068 425.573 33.5068C427.906 33.5068 429.786 35.4002 429.786 37.7202Z" fill="#3345AB"/>
<path d="M460.187 37.7202C460.187 40.0402 458.307 41.9202 455.987 41.9202C453.667 41.9202 451.773 40.0402 451.773 37.7202C451.773 35.4002 453.667 33.5068 455.987 33.5068C458.307 33.5068 460.187 35.4002 460.187 37.7202Z" fill="#3345AB"/>
<path d="M490.6 37.7202C490.6 40.0402 488.707 41.9202 486.387 41.9202C484.067 41.9202 482.187 40.0402 482.187 37.7202C482.187 35.4002 484.067 33.5068 486.387 33.5068C488.707 33.5068 490.6 35.4002 490.6 37.7202Z" fill="#3345AB"/>
<path d="M520.999 37.7202C520.999 40.0402 519.119 41.9202 516.786 41.9202C514.466 41.9202 512.586 40.0402 512.586 37.7202C512.586 35.4002 514.466 33.5068 516.786 33.5068C519.119 33.5068 520.999 35.4002 520.999 37.7202Z" fill="#3345AB"/>
<path d="M429.786 71.2399C429.786 73.5599 427.906 75.4399 425.573 75.4399C423.253 75.4399 421.373 73.5599 421.373 71.2399C421.373 68.9066 423.253 67.0267 425.573 67.0267C427.906 67.0267 429.786 68.9066 429.786 71.2399Z" fill="#3345AB"/>
<path d="M460.187 71.2399C460.187 73.5599 458.307 75.4399 455.987 75.4399C453.667 75.4399 451.773 73.5599 451.773 71.2399C451.773 68.9066 453.667 67.0267 455.987 67.0267C458.307 67.0267 460.187 68.9066 460.187 71.2399Z" fill="#3345AB"/>
<path d="M490.6 71.2399C490.6 73.5599 488.707 75.4399 486.387 75.4399C484.067 75.4399 482.187 73.5599 482.187 71.2399C482.187 68.9066 484.067 67.0267 486.387 67.0267C488.707 67.0267 490.6 68.9066 490.6 71.2399Z" fill="#3345AB"/>
<path d="M520.999 71.2399C520.999 73.5599 519.119 75.4399 516.786 75.4399C514.466 75.4399 512.586 73.5599 512.586 71.2399C512.586 68.9066 514.466 67.0267 516.786 67.0267C519.119 67.0267 520.999 68.9066 520.999 71.2399Z" fill="#3345AB"/>
<path d="M1781.19 1017.07C1778.87 1017.07 1776.97 1015.19 1776.97 1012.87C1776.97 1010.53 1778.87 1008.65 1781.19 1008.65C1783.51 1008.65 1785.39 1010.53 1785.39 1012.87C1785.39 1015.19 1783.51 1017.07 1781.19 1017.07Z" fill="#3345AB"/>
<path d="M1781.19 1047.47C1778.87 1047.47 1776.97 1045.59 1776.97 1043.27C1776.97 1040.95 1778.87 1039.05 1781.19 1039.05C1783.51 1039.05 1785.39 1040.95 1785.39 1043.27C1785.39 1045.59 1783.51 1047.47 1781.19 1047.47Z" fill="#3345AB"/>
<path d="M1781.19 1077.88C1778.87 1077.88 1776.97 1075.99 1776.97 1073.67C1776.97 1071.35 1778.87 1069.47 1781.19 1069.47C1783.51 1069.47 1785.39 1071.35 1785.39 1073.67C1785.39 1075.99 1783.51 1077.88 1781.19 1077.88Z" fill="#3345AB"/>
<path d="M1747.67 1017.07C1745.35 1017.07 1743.47 1015.19 1743.47 1012.87C1743.47 1010.53 1745.35 1008.65 1747.67 1008.65C1750 1008.65 1751.88 1010.53 1751.88 1012.87C1751.88 1015.19 1750 1017.07 1747.67 1017.07Z" fill="#3345AB"/>
<path d="M1747.67 1047.47C1745.35 1047.47 1743.47 1045.59 1743.47 1043.27C1743.47 1040.95 1745.35 1039.05 1747.67 1039.05C1750 1039.05 1751.88 1040.95 1751.88 1043.27C1751.88 1045.59 1750 1047.47 1747.67 1047.47Z" fill="#3345AB"/>
<path d="M1747.67 1077.88C1745.35 1077.88 1743.47 1075.99 1743.47 1073.67C1743.47 1071.35 1745.35 1069.47 1747.67 1069.47C1750 1069.47 1751.88 1071.35 1751.88 1073.67C1751.88 1075.99 1750 1077.88 1747.67 1077.88Z" fill="#3345AB"/>
<path d="M1747.67 1108.28C1745.35 1108.28 1743.47 1106.4 1743.47 1104.07C1743.47 1101.75 1745.35 1099.87 1747.67 1099.87C1750 1099.87 1751.88 1101.75 1751.88 1104.07C1751.88 1106.4 1750 1108.28 1747.67 1108.28Z" fill="#3345AB"/>
<path d="M1747.67 1138.68C1745.35 1138.68 1743.47 1136.8 1743.47 1134.48C1743.47 1132.15 1745.35 1130.27 1747.67 1130.27C1750 1130.27 1751.88 1132.15 1751.88 1134.48C1751.88 1136.8 1750 1138.68 1747.67 1138.68Z" fill="#3345AB"/>
<path d="M1714.16 1077.88C1711.83 1077.88 1709.95 1075.99 1709.95 1073.67C1709.95 1071.35 1711.83 1069.47 1714.16 1069.47C1716.48 1069.47 1718.36 1071.35 1718.36 1073.67C1718.36 1075.99 1716.48 1077.88 1714.16 1077.88Z" fill="#3345AB"/>
<path d="M1714.16 1108.28C1711.83 1108.28 1709.95 1106.4 1709.95 1104.07C1709.95 1101.75 1711.83 1099.87 1714.16 1099.87C1716.48 1099.87 1718.36 1101.75 1718.36 1104.07C1718.36 1106.4 1716.48 1108.28 1714.16 1108.28Z" fill="#3345AB"/>
<path d="M1714.16 1138.68C1711.83 1138.68 1709.95 1136.8 1709.95 1134.48C1709.95 1132.15 1711.83 1130.27 1714.16 1130.27C1716.48 1130.27 1718.36 1132.15 1718.36 1134.48C1718.36 1136.8 1716.48 1138.68 1714.16 1138.68Z" fill="#3345AB"/>
<path d="M262.134 288.213L281.813 343.427L213.334 313.72C203.494 316.12 193.053 317.333 182.213 317.333C125.587 317.333 79.8135 282.787 79.8135 240.027C79.8135 197.453 125.587 162.92 182.213 162.92C238.64 162.92 284.413 197.453 284.413 240.027C284.413 258.293 275.987 275.16 262.134 288.213" fill="#FBC7CF"/>
<path d="M129.106 208.053C121.506 217.893 113.893 227.733 113.44 236.32C112.986 244.92 119.68 252.253 126.36 259.586C156.546 261 186.733 262.413 209.56 262.413C221.666 262.413 231.706 262.013 238.573 261C258.373 258.08 251.786 250.066 240.413 244.906C229.053 239.733 212.88 237.4 201.266 232.146C189.653 226.88 182.6 218.693 175.546 210.506C167.586 215.226 159.626 219.96 152.16 219.96C151.853 219.96 151.533 219.96 151.24 219.946C143.493 219.52 136.306 213.786 129.106 208.053" fill="#3345AB"/>
<path d="M187 234.666C187.453 236.093 187.92 237.506 188.853 237.506C189.133 237.506 189.467 237.386 189.853 237.066C191.507 235.746 194.213 231.213 196.92 226.706C196.347 225.32 195.773 223.92 194.8 223.92C194.493 223.92 194.147 224.053 193.76 224.373C192.107 225.706 189.547 230.186 187 234.666Z" fill="white"/>
<path d="M178.854 227.333C179.32 228.747 179.787 230.173 180.72 230.173C181 230.173 181.334 230.053 181.72 229.733C183.374 228.413 186.08 223.893 188.787 219.36C188.214 217.973 187.64 216.573 186.667 216.573C186.36 216.573 186.014 216.72 185.627 217.04C183.96 218.373 181.414 222.84 178.854 227.333" fill="white"/>
<path d="M245.6 247.72C246.946 248.546 248.04 249.386 248.906 250.24C247.4 251.6 245.64 252.666 243.653 253.493C238.613 255.253 234.986 256.2 232.746 256.333C229.773 256.786 226.213 257.133 222.08 257.36C218.48 257.573 213.84 257.666 208.146 257.666C205.973 257.666 203.64 257.653 201.146 257.613C200.973 257.613 200.813 257.613 200.666 257.613C198.026 257.613 190.28 257.373 177.426 256.88C168.613 256.586 149.853 255.533 121.146 253.68C119.906 252.24 118.84 250.853 117.946 249.52L118.026 249.546C148.626 251.506 168.466 252.626 177.546 252.92C190.386 253.413 198.08 253.653 200.626 253.653C200.786 253.653 200.946 253.653 201.066 253.653C203.6 253.666 205.96 253.693 208.146 253.693C213.746 253.706 218.32 253.613 221.853 253.4C225.933 253.173 229.413 252.826 232.333 252.386L232.506 252.373C234.373 252.253 237.573 251.413 242.12 249.826C243.453 249.28 244.613 248.573 245.6 247.72" fill="white"/>
<path d="M227.613 934.76L149.347 897.346L136.613 920.36L209.88 967.693L227.613 934.76Z" fill="#F7B49E"/>
<path d="M160.227 901.36C156.32 895.84 152.413 890.306 145.813 887.973C142.533 886.8 138.587 886.413 134.294 886.413C129.974 886.413 125.294 886.813 120.627 887.213L117.4 895.546L128.533 904.213C120.013 911.066 111.48 917.933 104.667 929.226C97.8535 940.52 92.7068 956.28 96.5468 957.066L96.8801 957.093C101.08 957.093 113.467 943.48 122.68 936.133C132.133 928.586 138.2 927.626 144.28 926.666C146.08 920.44 147.88 914.2 150.547 909.973C153.2 905.746 156.72 903.546 160.227 901.36" fill="#3345AB"/>
<path d="M214.96 927.227L472.533 1027L378.347 722.2C388.96 720.587 399.573 718.96 410.267 718.96C441.747 718.96 473.96 732.973 508.96 802.2C555.853 894.947 607.813 1086.83 556.933 1130.2C548.866 1137.08 538.2 1140.23 525.36 1140.23C457.267 1140.23 327.92 1051.81 198.573 963.4C199.04 955.987 199.52 948.573 202.253 942.533C204.987 936.507 209.973 931.867 214.96 927.227" fill="#64729F"/>
<path d="M525.814 839.226C525.814 839.226 525.8 839.226 525.787 839.226C520.227 825.746 514.56 813.28 508.96 802.2C506.4 797.146 503.854 792.373 501.32 787.88C509.654 802.586 517.814 819.693 525.814 839.226Z" fill="#CECECE"/>
<path d="M478.093 1063.4C469.16 1063.04 460.826 1061.65 453.08 1059.23C455.68 1046.71 457.959 1034.32 459.866 1022.09L472.533 1027L463.266 997.013C464.986 981.866 466.066 967 466.373 952.44C467.146 916.88 463.386 883.226 456.786 853.093C455.266 846.12 453.599 839.346 451.773 832.76C451.773 832.72 451.76 832.693 451.746 832.666C449.413 824.186 446.866 816.053 444.133 808.32C449.186 806.493 454.399 804.36 459.786 801.933C463.839 800.12 467.759 798.213 471.586 796.24C479.906 792 488.573 787.093 497.613 781.52C498.853 783.587 500.093 785.706 501.319 787.88C503.853 792.373 506.4 797.146 508.96 802.2C514.56 813.28 520.226 825.746 525.786 839.226C525.399 839.226 525 839.226 524.613 839.226C501.613 839.226 486.626 845.88 479.626 859.187C483.946 865.72 487.759 873.466 491.039 882.4C493.333 885.346 497.106 901.466 502.373 930.733C505.839 952.853 507.293 985.773 506.76 1029.52C505.906 1052.11 496.346 1063.4 478.093 1063.4" fill="#556187"/>
<path d="M213.907 928.213L213.747 928.133C214.147 927.826 214.547 927.533 214.96 927.226C214.614 927.56 214.254 927.88 213.907 928.213ZM122.454 909.186C123.787 908.066 125.12 906.96 126.467 905.866C125.12 906.96 123.787 908.053 122.454 909.186ZM159.214 902.066L159.147 902.026C159.387 901.88 159.64 901.72 159.88 901.573C159.627 901.733 159.4 901.906 159.214 902.066V902.066ZM145.814 887.973C142.534 886.8 138.587 886.413 134.294 886.413C129.974 886.413 125.294 886.813 120.627 887.213C125.294 886.8 129.974 886.4 134.307 886.4C138.587 886.4 142.534 886.8 145.814 887.973" fill="#CECECE"/>
<path d="M200.227 948.8C200.174 948.787 200.107 948.773 200.054 948.76L200.067 948.747V948.72C199.347 948.507 198.627 948.307 197.92 948.093L147.48 916.48C148.387 914.04 149.387 911.813 150.547 909.973C152.934 906.173 156 904.027 159.147 902.027L159.214 902.067L213.747 928.133L213.907 928.213C209.28 932.533 204.787 936.933 202.254 942.533C201.36 944.493 200.721 946.6 200.227 948.8" fill="#D29986"/>
<path d="M147.48 916.48L145.187 915.053L122.454 909.187C123.787 908.053 125.12 906.96 126.467 905.867C127.16 905.32 127.84 904.76 128.534 904.213L117.4 895.547L120.627 887.213C125.294 886.813 129.974 886.413 134.294 886.413C138.587 886.413 142.534 886.8 145.814 887.973C152.414 890.32 156.32 895.84 160.227 901.36C160.107 901.427 160 901.493 159.88 901.573C159.64 901.72 159.387 901.88 159.147 902.027C156 904.027 152.934 906.173 150.547 909.973C149.387 911.813 148.387 914.04 147.48 916.48Z" fill="#2B3B92"/>
<path d="M353 1006.56C340.16 1000.28 327.04 994.107 313.64 988.067C277.493 974.253 245.36 962.893 217.227 954.027L217.24 954.013L217.253 954C211.44 952.16 205.76 950.44 200.227 948.8C200.72 946.6 201.36 944.493 202.253 942.533C204.786 936.933 209.28 932.533 213.907 928.213C214.253 927.88 214.613 927.56 214.96 927.227L348.44 978.933C349.653 985.027 350.773 991.307 351.773 997.773C352.2 1000.67 352.613 1003.59 353 1006.56" fill="#556187"/>
<path d="M328.319 1357.93C324.093 1363.23 319.866 1368.49 319.413 1375.48C318.959 1382.47 322.293 1391.19 325.626 1399.91L334.519 1400.71L339.786 1387.61C348.719 1393.93 357.653 1400.24 370.399 1403.67C377.093 1405.48 384.839 1406.49 390.639 1406.49C395.879 1406.49 399.546 1405.67 399.399 1403.81C399.093 1399.91 381.959 1391.48 372.093 1384.47C362.226 1377.45 359.639 1371.87 357.039 1366.29C350.546 1366.28 344.039 1366.27 339.253 1364.88C334.466 1363.49 331.386 1360.71 328.319 1357.93" fill="#3345AB"/>
<path d="M341.893 1283.96L327.467 1369.49L353.08 1375.4L378.413 1291.95L341.893 1283.96" fill="#F7B49E"/>
<path d="M306.667 757.933C306.507 792.187 306.347 826.427 317.334 868.333C328.307 910.24 350.427 959.8 355.574 1031.44C360.721 1103.09 348.907 1196.85 337.081 1290.61C343.267 1295.25 349.441 1299.89 356.694 1301.56C359.161 1302.13 361.747 1302.36 364.427 1302.36C369.601 1302.36 375.094 1301.51 380.587 1300.67C422.347 1179.08 464.121 1057.52 466.374 952.44C468.641 847.347 431.374 758.773 398.174 729.107C388.374 720.347 378.921 716.72 369.707 716.72C347.747 716.72 327.214 737.32 306.667 757.933Z" fill="#8294D2"/>
<path d="M399.294 1222.25L395.894 1224.29L399.294 1222.25Z" fill="#8294D2"/>
<path d="M389.987 1406.53L389.667 1406.52L389.36 1406.49L389.134 1406.48C389.027 1406.48 388.92 1406.47 388.813 1406.47C389.44 1406.49 390.054 1406.49 390.64 1406.49C391.187 1406.49 391.707 1406.49 392.2 1406.47C391.52 1406.51 390.773 1406.52 389.987 1406.53V1406.53ZM395.2 1406.23C395.72 1406.15 396.213 1406.05 396.653 1405.95C396.667 1405.96 396.68 1405.96 396.68 1405.97C396.24 1406.07 395.747 1406.15 395.2 1406.23V1406.23ZM398 1405.56C397.974 1405.56 397.96 1405.55 397.947 1405.53C398.533 1405.28 398.947 1404.97 399.187 1404.61C399.173 1404.63 399.174 1404.64 399.16 1404.65C398.987 1405.01 398.6 1405.31 398 1405.56" fill="#D9D9D9"/>
<path d="M396.68 1405.97C396.68 1405.96 396.667 1405.96 396.653 1405.95C397.147 1405.83 397.573 1405.69 397.947 1405.53C397.96 1405.55 397.973 1405.56 398 1405.56C397.64 1405.72 397.2 1405.85 396.68 1405.97Z" fill="#BCBFCD"/>
<path d="M380.373 1405.69C376.759 1405.21 373.426 1404.53 370.399 1403.67C368.733 1403.31 366.746 1402.68 364.399 1401.76C366.306 1402.47 368.306 1403.11 370.399 1403.67C373.586 1404.53 377.026 1405.21 380.373 1405.69ZM399.133 1403.01C398.266 1401.35 395.253 1399.11 391.373 1396.6L391.999 1396.99C393.706 1398.11 395.173 1399.15 396.386 1400.12C397.813 1401.23 398.733 1402.2 399.133 1403.01V1403.01ZM334.519 1400.71L333.493 1400.63L334.519 1400.71L339.786 1387.61C342.226 1389.33 344.653 1391.05 347.173 1392.72C344.893 1391.23 342.426 1389.52 339.786 1387.61L334.519 1400.71ZM331.106 1400.4L325.626 1399.91C325.093 1398.6 324.599 1397.33 324.146 1396.12C324.159 1396.12 324.186 1396.13 324.199 1396.15C324.666 1397.4 325.146 1398.65 325.626 1399.91L331.106 1400.4ZM323.586 1394.49L323.533 1394.47C322.479 1391.57 321.626 1388.95 320.973 1386.6C321.693 1389.16 322.599 1391.8 323.586 1394.49Z" fill="#D9D9D9"/>
<path d="M333.493 1400.63L331.107 1400.4L333.493 1400.63ZM324.2 1396.15C324.187 1396.13 324.16 1396.12 324.146 1396.12C323.933 1395.56 323.733 1395 323.533 1394.47L323.586 1394.49C323.786 1395.04 323.987 1395.59 324.2 1396.15Z" fill="#BABFCD"/>
<path d="M320.746 1385.77C319.56 1381.33 319.12 1377.89 319.413 1375.48C319.213 1378.61 319.773 1382.09 320.746 1385.77ZM321.493 1367.88C322.44 1365.85 323.693 1363.8 325.266 1361.73C325.28 1361.75 325.306 1361.76 325.333 1361.77C323.866 1363.72 322.533 1365.73 321.493 1367.88ZM326.04 1360.83L325.986 1360.8C326.386 1360.29 326.8 1359.8 327.226 1359.31C326.827 1359.81 326.426 1360.32 326.04 1360.83Z" fill="#D9D9D9"/>
<path d="M325.333 1361.77C325.307 1361.76 325.28 1361.75 325.267 1361.73C325.507 1361.41 325.747 1361.11 325.987 1360.8L326.04 1360.83C325.8 1361.13 325.56 1361.45 325.333 1361.77Z" fill="#BCBFCD"/>
<path d="M329.267 1358.8C329.267 1358.79 329.267 1358.79 329.267 1358.79L333.907 1331.29C333.92 1331.29 333.893 1331.29 333.907 1331.29L329.267 1358.8ZM334.133 1329.93L334.68 1326.73L334.867 1325.59L334.133 1329.93Z" fill="#D9D9D9"/>
<path d="M333.906 1331.29C333.893 1331.29 333.92 1331.29 333.906 1331.29L334.133 1329.93L333.906 1331.29Z" fill="#BEBFCD"/>
<path d="M340.293 1293.45C339.2 1292.57 338.133 1291.63 337.08 1290.61C338.173 1291.43 339.267 1292.25 340.36 1293.05L340.293 1293.45ZM347.4 1205.53C347.813 1201.91 348.2 1198.35 348.573 1194.87C348.2 1198.41 347.8 1201.97 347.4 1205.53ZM348.72 1193.51C349.067 1190.19 349.413 1186.95 349.733 1183.76L349.747 1183.77C349.413 1187 349.067 1190.25 348.72 1193.51Z" fill="#D9D9D9"/>
<path d="M348.573 1194.87C348.627 1194.41 348.667 1193.96 348.72 1193.51C348.68 1193.96 348.627 1194.41 348.573 1194.87Z" fill="#C5C2CD"/>
<path d="M349.746 1183.77L349.733 1183.76C350.279 1178.57 350.773 1173.57 351.239 1168.76C350.759 1173.73 350.266 1178.73 349.746 1183.77V1183.77ZM354.253 1132.93C354.306 1132.25 354.346 1131.59 354.399 1130.91C355.426 1112.97 356.133 1098.81 356.533 1088.45C356.146 1102.8 355.346 1117.67 354.253 1132.93V1132.93ZM356.813 1069.07C356.813 1069.04 356.813 1069.03 356.813 1069C356.813 1068.71 356.813 1068.41 356.813 1068.13C356.813 1068.44 356.813 1068.75 356.813 1069.07ZM338.626 938.72C336.853 932.627 334.759 925.613 332.346 917.68C334.439 924.44 336.559 931.44 338.626 938.72ZM320.293 879.013C320.293 879 320.293 878.987 320.293 878.987C319.586 877.067 318.599 873.547 317.346 868.427C318.266 871.893 319.253 875.427 320.293 879.013V879.013ZM312.479 846.707C311.093 839.467 309.933 831.813 308.973 823.787C308.999 823.787 309.039 823.787 309.066 823.787C309.893 831.213 310.999 838.84 312.479 846.707" fill="#CECECE"/>
<path d="M356.813 1068.13C356.813 1066.84 356.8 1065.55 356.8 1064.27C356.813 1065.55 356.813 1066.84 356.813 1068.13ZM356.587 1052.15C356.387 1045.21 356.067 1038.44 355.6 1031.84C356.067 1038.43 356.4 1045.2 356.587 1052.15ZM355.573 1031.36C354.893 1022.81 354.027 1014.55 353 1006.56C353.013 1006.57 353.027 1006.57 353.04 1006.57C354.093 1014.53 354.947 1022.8 355.573 1031.36Z" fill="#556187"/>
<path d="M456.786 853.093C455.253 846.08 453.573 839.266 451.746 832.666C451.759 832.693 451.773 832.72 451.773 832.76C453.599 839.346 455.266 846.12 456.786 853.093Z" fill="#485373"/>
<path d="M353.04 1006.57C353.027 1006.57 353.013 1006.57 353 1006.56C352.613 1003.59 352.2 1000.67 351.773 997.773C352.213 1000.67 352.64 1003.6 353.04 1006.57Z" fill="#485373"/>
<path d="M390.64 1406.49C390.053 1406.49 389.44 1406.49 388.813 1406.47C385.853 1406.31 383.04 1406.05 380.373 1405.69C377.027 1405.21 373.587 1404.53 370.4 1403.67C368.307 1403.11 366.307 1402.47 364.4 1401.76C362.013 1400.83 359.267 1399.6 356.173 1398.08C353.6 1396.76 350.6 1394.97 347.173 1392.72C344.653 1391.05 342.227 1389.33 339.787 1387.61L334.52 1400.71L333.493 1400.63L331.107 1400.4L325.627 1399.91C325.147 1398.65 324.667 1397.4 324.2 1396.15C323.987 1395.59 323.787 1395.04 323.587 1394.49C322.6 1391.8 321.693 1389.16 320.973 1386.6C320.893 1386.32 320.827 1386.04 320.747 1385.77C319.773 1382.09 319.213 1378.61 319.413 1375.48C319.6 1372.99 320.293 1370.45 321.493 1367.88C322.533 1365.73 323.867 1363.72 325.333 1361.77C325.56 1361.45 325.8 1361.13 326.04 1360.83C326.427 1360.32 326.827 1359.81 327.227 1359.31C327.24 1359.29 327.253 1359.28 327.267 1359.27L328.32 1357.93C328.64 1358.24 328.947 1358.53 329.267 1358.81V1358.79C329.267 1358.79 329.267 1358.79 329.267 1358.8L327.467 1369.49L352.733 1375.32C353.893 1376.57 355.147 1377.84 356.467 1379.12L360.867 1383.16L385.24 1392.8L391.373 1396.6C395.253 1399.11 398.267 1401.35 399.133 1403.01C399.453 1403.63 399.467 1404.16 399.187 1404.61C398.947 1404.97 398.533 1405.28 397.947 1405.53C397.573 1405.69 397.147 1405.83 396.653 1405.95C396.213 1406.05 395.72 1406.15 395.2 1406.23C394.333 1406.33 393.333 1406.43 392.2 1406.47C391.707 1406.49 391.187 1406.49 390.64 1406.49" fill="#2B3B92"/>
<path d="M352.733 1375.32L327.467 1369.49L329.267 1358.8L333.907 1331.29L334.133 1329.93L334.867 1325.59L340.387 1293.53C340.36 1293.51 340.32 1293.48 340.293 1293.45L340.36 1293.05C344.72 1296.24 349.173 1299.19 354.093 1300.83L342.693 1332.23C340.44 1338.35 339.333 1343.93 339.387 1349.01C339.667 1357.27 344.12 1366.04 352.733 1375.32Z" fill="#D29986"/>
<path d="M354.093 1300.83C349.173 1299.19 344.72 1296.24 340.36 1293.05C339.266 1292.25 338.173 1291.43 337.08 1290.61C341.213 1258.69 344.653 1230.33 347.4 1205.53C347.8 1201.97 348.2 1198.41 348.573 1194.87C348.626 1194.41 348.68 1193.96 348.72 1193.51C349.066 1190.25 349.413 1187 349.746 1183.77C350.266 1178.73 350.76 1173.73 351.24 1168.76C352.52 1155.37 353.533 1143.43 354.253 1132.93C355.346 1117.67 356.146 1102.8 356.533 1088.45C356.92 1078.51 357.013 1072.04 356.813 1069.07C356.813 1068.75 356.813 1068.44 356.813 1068.13C356.813 1066.84 356.813 1065.55 356.8 1064.27C356.773 1060.17 356.706 1056.13 356.586 1052.15C356.4 1045.2 356.066 1038.43 355.6 1031.84C355.586 1031.71 355.586 1031.57 355.573 1031.44C355.573 1031.41 355.573 1031.39 355.573 1031.36C354.946 1022.8 354.093 1014.53 353.04 1006.57C352.64 1003.6 352.213 1000.67 351.773 997.773C350.133 986.84 348.146 976.453 345.813 966.627C345.28 962.64 342.893 953.333 338.626 938.72C336.56 931.44 334.44 924.44 332.346 917.68C328.96 906.586 324.946 893.706 320.293 879.013C319.253 875.426 318.266 871.893 317.346 868.427C316.08 863.24 314.546 856.44 312.72 847.987C312.64 847.56 312.56 847.133 312.48 846.707C311 838.84 309.893 831.213 309.066 823.787C310.626 823.747 312.186 823.72 313.746 823.693C337.44 823.48 358.413 822.6 376.64 821.04C393.413 819.68 409.213 817.613 423.36 814.293C429.893 812.947 436.773 810.973 443.986 808.373C446.68 816.027 449.266 824.12 451.746 832.667C453.573 839.267 455.253 846.08 456.786 853.093C456.093 853.093 455.413 853.093 454.746 853.093C454.613 853.093 454.48 853.093 454.346 853.093C437.88 853.093 428.4 854.027 425.906 855.907C417.293 858.093 409.866 861.4 403.6 865.8C391.066 874.587 383.2 887.787 380.04 905.373C377.92 919.987 377.48 929.827 378.693 934.907L380.36 945.533C387.733 972.027 392.893 993.84 395.826 1011.03C398.28 1031.65 399.026 1049.28 398.08 1063.93L376.28 1173.03C374.226 1186.33 372.426 1209.41 370.88 1242.28C370.666 1245.76 369.4 1253.37 367.053 1265.12L354.093 1300.83" fill="#6F7EB3"/>
<path d="M420.999 509.213L571.159 477.627L659.559 290.72L684.919 303.84C672.946 387.84 660.986 471.853 609.186 528.733C562.839 579.64 484.599 608.827 441.439 608.827C436.373 608.827 431.786 608.427 427.799 607.6C389.786 599.827 405.399 554.533 420.999 509.213" fill="#F7B49E"/>
<path d="M656.773 300.453C655.52 288.6 654.253 276.773 655.507 271.613C656.16 268.893 657.507 268.027 659.173 268.027C660.68 268.027 662.44 268.733 664.213 269.44C663.907 257.893 663.6 246.36 672.72 244.653C673.533 244.507 674.413 244.427 675.36 244.427C685.013 244.427 700.68 252.267 703.333 264.333C706.24 277.587 693.507 295.947 680.76 314.293L656.773 300.453" fill="#F7B49E"/>
<path d="M464.787 606.573C491.68 601.866 524.894 589.893 555.534 571.627C540.587 580.707 525.014 588.227 508.827 594.16C493.041 600.2 478.36 604.333 464.787 606.573ZM597.014 540.973C601.267 537.04 605.334 532.96 609.187 528.733C622.347 514.28 632.934 498.093 641.6 480.587C641.467 480.867 641.334 481.146 641.2 481.413C629.454 504.946 614.734 524.786 597.014 540.973V540.973ZM655.6 446.827C664.547 420.96 670.68 393.16 675.64 364.587C672.547 382.64 669.694 396.747 667.094 406.893C663.947 420.68 660.12 433.987 655.6 446.827ZM680.8 332.32C681.934 324.707 683.04 317.067 684.12 309.427C686.134 306.507 688.12 303.613 690 300.733C689.227 301.96 687.267 304.92 684.107 309.6C682.987 317.586 681.88 325.147 680.8 332.32V332.32ZM695.667 291.533C696.454 290.16 697.187 288.8 697.894 287.453C697.614 288.147 696.867 289.506 695.667 291.533Z" fill="#CECECE"/>
<path d="M459.04 607.413C461.147 598.333 462.8 589.546 463 581.186C463.32 568.106 460.081 556.04 454.947 544.52C500.227 535.226 528.947 528.026 541.081 522.893C561.201 514.026 580.76 500.4 599.774 482.013C604.054 477.626 608.067 473.066 611.8 468.306C627.36 445.28 635.68 431.773 636.774 427.8C652.72 351.746 662.747 312.2 666.84 309.133C667.227 308.386 667.614 307.653 668.014 306.933L680.761 314.293C681.894 312.666 683.014 311.053 684.12 309.426C683.04 317.066 681.934 324.706 680.8 332.32C679.014 344.2 677.294 354.96 675.64 364.586C670.68 393.16 664.547 420.96 655.6 446.826C651.507 458.466 646.84 469.72 641.6 480.586C632.934 498.093 622.347 514.28 609.187 528.733C605.334 532.96 601.267 537.04 597.014 540.973C597.001 540.986 596.987 540.986 596.974 541C583.734 552.666 569.92 562.88 555.534 571.626C524.894 589.893 491.68 601.866 464.787 606.573C462.854 606.893 460.934 607.173 459.04 607.413" fill="#D29986"/>
<path d="M680.76 314.293L668.014 306.933C679.76 285.333 691.6 273.013 703.507 269.987H703.627L703.56 271.36L702.827 275.147L701.6 279.093C700.627 281.787 699.4 284.547 697.907 287.4C697.907 287.413 697.894 287.44 697.894 287.453C697.187 288.8 696.453 290.16 695.667 291.533C694.347 293.76 692.48 296.773 690.067 300.6C690.053 300.64 690.027 300.68 690 300.733C688.12 303.613 686.134 306.507 684.12 309.427C683.014 311.053 681.894 312.667 680.76 314.293" fill="#D29986"/>
<path d="M302.306 823.92C345.84 823.08 389.36 822.253 423.36 814.293C457.373 806.32 481.853 791.173 506.333 776.013C480.319 742.293 454.293 708.586 449.786 675.32C445.293 642.04 462.319 609.253 462.999 581.186C463.679 553.133 448.026 529.773 432.373 506.4C413.92 501.706 395.493 497 375.973 497C370.586 497 365.12 497.36 359.546 498.173C333.786 501.946 305.8 515.546 277.8 529.133C272.24 570.213 266.68 611.306 270.773 660.426C274.853 709.56 288.586 766.733 302.306 823.92" fill="#F7A0AE"/>
<path d="M302.307 823.92C299.893 814.12 297.613 804.68 295.467 795.613C295.493 795.6 295.52 795.6 295.547 795.586C297.773 805 300.04 814.466 302.307 823.92" fill="#BFBFBF"/>
<path d="M313.746 823.693C335.306 823.253 356.653 822.653 376.639 821.04C358.413 822.6 337.439 823.48 313.746 823.693Z" fill="#57638D"/>
<path d="M444.134 808.32C444.12 808.28 444.107 808.253 444.094 808.213C449.547 806.293 454.76 804.173 459.787 801.933C454.4 804.36 449.187 806.493 444.134 808.32" fill="#434C6A"/>
<path d="M443.986 808.373C443.973 808.333 443.96 808.307 443.946 808.267C444 808.253 444.053 808.24 444.093 808.213C444.106 808.253 444.12 808.28 444.133 808.32C444.08 808.333 444.026 808.347 443.986 808.373Z" fill="#6675A6"/>
<path d="M423.359 814.293C430.626 812.586 437.453 810.56 443.946 808.266C443.959 808.306 443.973 808.333 443.986 808.373C436.773 810.973 429.893 812.946 423.359 814.293" fill="#57638D"/>
<path d="M497.627 781.506C497.613 781.48 497.587 781.44 497.573 781.413C500.507 779.626 503.426 777.813 506.333 776.013C503.4 777.906 500.493 779.746 497.627 781.506Z" fill="#BFBFBF"/>
<path d="M497.614 781.52C497.601 781.48 497.574 781.453 497.561 781.427C497.561 781.413 497.574 781.413 497.574 781.413C497.587 781.44 497.614 781.48 497.627 781.506C497.627 781.52 497.627 781.52 497.614 781.52Z" fill="#4F5A7D"/>
<path d="M471.586 796.24C480.626 791.587 489.159 786.56 497.559 781.427C497.573 781.453 497.599 781.48 497.613 781.52C488.573 787.093 479.906 792 471.586 796.24Z" fill="#434C6A"/>
<path d="M470.119 725.693C468.959 723.813 467.839 721.933 466.746 720.053C466.773 720.04 466.799 720.026 466.826 720.013C467.879 721.88 468.973 723.773 470.119 725.693" fill="#BFBFBF"/>
<path d="M302.307 823.92C300.04 814.466 297.774 805 295.547 795.586C310.307 791.333 327.147 783.173 345.36 772.4C353.507 767.626 361.92 762.32 370.627 756.48C373.28 756.68 375.974 756.786 378.734 756.786C388.734 756.786 399.48 755.48 410.974 752.92C420.734 751.026 428.24 748.546 433.52 745.453C448.467 733.293 459.534 724.826 466.747 720.053C467.84 721.933 468.96 723.813 470.12 725.693C479.267 741.026 491.333 757.8 506.333 776.013C503.427 777.813 500.507 779.626 497.574 781.413C497.574 781.413 497.56 781.413 497.56 781.426C489.16 786.56 480.627 791.586 471.587 796.24C467.574 798.293 463.64 800.186 459.787 801.933C454.76 804.173 449.547 806.293 444.094 808.213C444.054 808.24 444 808.253 443.947 808.266C437.454 810.56 430.627 812.586 423.36 814.293C410.56 817.226 394.987 819.48 376.64 821.04C356.654 822.653 335.307 823.253 313.747 823.693C313.56 823.693 313.374 823.693 313.187 823.693L302.307 823.92V823.92ZM298.32 728.213C312.16 675.72 326.014 623.226 319.28 578.893C319.067 577.466 318.827 576.04 318.56 574.626C319.267 575.32 319.934 575.986 320.574 576.666C329.334 585.026 335.214 595.786 338.227 608.933C340.747 622.493 341.027 634.293 339.08 644.293L320.52 690.213C317.68 699.053 316.054 708.08 315.64 717.28C315.614 718.48 315.707 719.693 315.92 720.946L298.32 728.213Z" fill="#C37E89"/>
<path d="M473.04 616.333V616.346C471.28 616.2 469.694 617.72 469.494 619.706L465.107 662.8L460.64 706.92C460.534 707.933 460.787 708.933 461.32 709.706C461.867 710.48 462.653 710.933 463.52 711.027L510.214 715.413C511.094 715.48 511.973 715.133 512.667 714.493C513.347 713.84 513.787 712.907 513.867 711.893L521.533 623.706C521.72 621.68 520.4 619.933 518.614 619.813L473.04 616.333V616.346V616.333Z" fill="#3345AB"/>
<path d="M492.253 635.053L491.893 635.013C491.16 634.826 490.6 634.4 490.213 633.746C489.84 633.093 489.72 632.333 489.88 631.506C490.08 630.706 490.48 630.106 491.093 629.666C491.626 629.373 491.946 629.226 492.08 629.226C492.32 629.173 492.56 629.173 492.813 629.186C493.586 629.266 494.186 629.6 494.64 630.186C495.093 630.786 495.306 631.506 495.253 632.333C495.146 633.173 494.813 633.853 494.253 634.346C493.693 634.866 493.026 635.106 492.253 635.053" fill="#F5EEEA"/>
<path d="M492.52 632.36L492.853 632.16L492.52 632.36Z" fill="#F5EEEA"/>
<path d="M466.64 686.106L454.867 663.587L298.32 728.213C312.16 675.72 326.014 623.227 319.28 578.893C314.96 550.44 302.16 525.346 287.04 525.346C278.6 525.346 269.44 533.146 260.627 552.546C236.04 606.693 214.147 751.16 248.934 788.466C255.627 795.666 264.44 798.88 274.947 798.88C318.96 798.88 392.8 742.493 466.64 686.106" fill="#F7B49E"/>
<path d="M462.933 688.88C474.2 684.346 485.466 679.813 488.653 671.693C491.84 663.587 486.973 651.867 481.92 648.227C480.613 647.28 479.293 646.88 477.96 646.88C474.146 646.88 470.266 650.16 466.386 653.44L467.986 642.387C465.36 642.8 462.72 643.226 460.28 646.866C457.853 650.506 455.613 657.346 453.373 664.2L462.933 688.88" fill="#F7B49E"/>
<path d="M274.799 799.013C272.173 799.013 269.773 798.773 267.586 798.293C269.933 798.68 272.386 798.88 274.946 798.88C278.546 798.88 282.346 798.493 286.333 797.773C282.106 798.6 278.266 799.013 274.799 799.013ZM266.999 798.186C261.653 797.36 256.906 795.28 252.733 791.96C256.879 795.186 261.653 797.213 266.999 798.186ZM241.639 777.546C241.546 777.373 241.466 777.2 241.373 777.013L241.359 776.973C241.453 777.173 241.546 777.36 241.639 777.546Z" fill="#BFBFBF"/>
<path d="M370.626 756.48C370.613 756.48 370.599 756.48 370.586 756.48C372.253 755.373 373.933 754.24 375.613 753.107C373.946 754.253 372.279 755.373 370.626 756.48" fill="#C37E89"/>
<path d="M345.359 772.4C353.506 767.573 361.946 762.24 370.586 756.48C370.599 756.48 370.613 756.48 370.626 756.48C361.919 762.32 353.506 767.626 345.359 772.4Z" fill="#9A636C"/>
<path d="M236.026 761.853L236 761.786C235.906 761.413 235.813 761.026 235.72 760.653C235.826 761.053 235.92 761.453 236.026 761.853" fill="#BFBFBF"/>
<path d="M377 752.16C387.013 745.36 397.293 738.066 407.733 730.44C394.893 739.84 384.653 747.08 377 752.16Z" fill="#C37E89"/>
<path d="M233.146 747.347C232.013 739.733 231.306 731.533 231.026 722.747V722.52C231.32 731.28 232.013 739.627 233.146 747.347ZM454.826 695.133C454.826 695.12 454.826 695.12 454.826 695.12C457.36 693.187 459.893 691.253 462.426 689.32V689.333C459.84 691.307 457.306 693.24 454.826 695.133Z" fill="#BFBFBF"/>
<path d="M444.16 703.24C447.707 700.547 451.267 697.84 454.827 695.12C454.827 695.12 454.827 695.12 454.827 695.133C451.16 697.92 447.613 700.627 444.16 703.24" fill="#C37E89"/>
<path d="M231.053 700.613V700.307C231.613 684.76 232.986 668.987 235.186 652.96C235.239 652.6 235.293 652.227 235.36 651.867C233.093 668.187 231.573 684.773 231.053 700.613ZM244.879 601.267C247.973 588.187 251.319 576.733 254.906 566.92C251.346 576.92 247.946 588.6 244.879 601.267ZM280.546 526.893C280.559 526.88 280.573 526.88 280.586 526.867C280.679 526.827 280.773 526.787 280.866 526.747C280.759 526.787 280.653 526.84 280.546 526.893Z" fill="#BFBFBF"/>
<path d="M462.427 689.333V689.32C462.64 689.16 462.867 688.986 463.093 688.813C464.08 688.413 465.067 688.013 466.053 687.613C465.947 687.666 465.84 687.706 465.733 687.746L463.013 688.88C462.813 689.026 462.627 689.186 462.427 689.333V689.333ZM474.387 683.973C475.907 683.253 477.36 682.493 478.72 681.693C477.707 682.333 476.267 683.093 474.387 683.973Z" fill="#283687"/>
<path d="M274.946 798.88C272.386 798.88 269.933 798.68 267.586 798.293C267.52 798.28 267.453 798.267 267.386 798.253C267.253 798.227 267.133 798.213 267 798.187C261.653 797.213 256.88 795.187 252.733 791.96C248.4 788.507 244.693 783.693 241.64 777.546C241.546 777.36 241.453 777.173 241.36 776.973L236.026 761.853C235.92 761.453 235.826 761.053 235.72 760.653C234.706 756.427 233.84 752 233.146 747.346C232.013 739.626 231.32 731.28 231.026 722.52L231.053 700.613C231.573 684.773 233.093 668.186 235.36 651.866C238.213 632.906 241.386 616.053 244.88 601.266C247.946 588.6 251.346 576.92 254.906 566.92C262.373 546.453 270.92 533.107 280.546 526.893C280.653 526.84 280.76 526.786 280.866 526.746C282.973 525.84 285.04 525.387 287.08 525.387C287.093 525.387 287.106 525.387 287.133 525.387C287.133 525.387 287.146 525.387 287.16 525.387C290.84 525.387 294.373 526.853 297.773 529.76C275.48 582.627 262.946 624 260.2 653.88C258.44 672.28 258.96 687.68 261.786 700.066C270.773 730.093 277.52 746.346 282.026 748.84C289.626 754.16 297.56 756.84 305.813 756.84C305.813 756.84 305.826 756.84 305.84 756.84C305.866 756.84 305.88 756.84 305.906 756.84C310.866 756.84 315.933 755.866 321.106 753.933C350.32 741.853 386.16 721.413 428.626 692.627C441.093 686.013 451.08 681.027 458.586 677.653L462.933 688.88C462.986 688.853 463.04 688.84 463.093 688.813C462.866 688.986 462.64 689.16 462.426 689.32C459.893 691.253 457.36 693.187 454.826 695.12C451.266 697.84 447.706 700.546 444.16 703.24C430.306 713.733 418.16 722.8 407.733 730.44C397.293 738.066 387.013 745.36 377 752.16C376.84 752.28 376.666 752.386 376.493 752.506C376.2 752.706 375.906 752.906 375.613 753.106C373.933 754.24 372.253 755.373 370.586 756.48C361.946 762.24 353.506 767.573 345.36 772.4C334.053 779.026 323.293 784.613 313.08 789.173C302.92 793.4 294 796.266 286.333 797.773C282.346 798.493 278.546 798.88 274.946 798.88" fill="#C38E7D"/>
<path d="M462.933 688.88L458.586 677.653C464.693 674.907 469.159 673.24 471.986 672.64C478.226 671.48 483.853 670.773 488.893 670.533L488.999 670.493L488.653 671.693L487.693 673.653C486.933 674.907 485.999 676.093 484.866 677.16L483.066 678.76C481.773 679.773 480.359 680.733 478.813 681.627C478.786 681.653 478.746 681.667 478.719 681.693C477.359 682.493 475.906 683.253 474.386 683.973C472.199 685.013 469.426 686.226 466.053 687.613C465.066 688.013 464.079 688.413 463.093 688.813C463.039 688.84 462.986 688.853 462.933 688.88" fill="#C38E7D"/>
<path d="M338.32 504.986L347.774 432.28L381.094 426.333L392.72 500.12C384.374 508.506 376.027 516.906 366.947 517.706C366.454 517.76 365.947 517.786 365.44 517.786C356.8 517.786 347.56 511.386 338.32 504.986" fill="#F7B49E"/>
<path d="M365.6 517.786C365.547 517.786 365.494 517.786 365.44 517.786C365.427 517.786 365.4 517.786 365.387 517.786C362.174 517.786 358.56 516.853 354.534 514.986C358.24 516.706 361.894 517.786 365.44 517.786C365.947 517.786 366.454 517.76 366.947 517.706C368.534 517.573 370.094 517.2 371.64 516.64C369.88 517.36 368.427 517.733 367.28 517.733C367.267 517.733 367.267 517.733 367.254 517.733L366.947 517.706C366.507 517.76 366.054 517.786 365.6 517.786V517.786ZM354.36 514.906C353.027 514.293 351.494 513.493 349.774 512.493C351.307 513.386 352.84 514.2 354.36 514.906ZM346.894 510.746C344.374 509.16 341.507 507.253 338.32 504.986C341.174 506.973 344.04 508.96 346.894 510.746Z" fill="#C37E89"/>
<path d="M338.561 503.08L346.654 440.08C346.694 440.053 346.734 440.013 346.774 439.986L338.561 503.08Z" fill="#BFBFBF"/>
<path d="M338.32 504.987L338.56 503.08L338.32 504.987Z" fill="#C37E89"/>
<path d="M382.374 434.466L382.24 433.653H382.254L382.28 433.853L382.374 434.466" fill="#BFBFBF"/>
<path d="M365.44 517.786C361.894 517.786 358.24 516.706 354.534 514.986C354.48 514.96 354.427 514.946 354.374 514.92C354.374 514.906 354.36 514.906 354.36 514.906C352.84 514.2 351.307 513.386 349.774 512.493C348.867 511.96 347.907 511.386 346.894 510.746C344.04 508.96 341.174 506.973 338.32 504.986L338.56 503.08L346.774 439.987C348.294 438.84 349.92 437.773 351.654 436.787C356.28 434.067 362.56 432.613 370.494 432.44L370.907 432.413C375.027 432.453 378.814 432.867 382.24 433.653L382.374 434.466L389.48 480.266C386.64 480.346 383.2 480.76 379.174 481.52C375.627 482.44 372.867 484.666 370.88 488.24C368.374 492.626 367.64 497.56 368.68 503.04C368.774 504.133 370.96 508.093 375.214 514.906C373.907 515.613 372.72 516.186 371.64 516.64C370.094 517.2 368.534 517.573 366.947 517.706C366.454 517.76 365.947 517.786 365.44 517.786" fill="#C38E7D"/>
<path d="M348.44 413.4C347.333 424.6 347.173 438.013 347.946 453.667C348.186 458.773 350.48 462.773 354.56 465.987C360.266 470.467 369 473.413 380.4 471.08C392.173 468.68 399.08 462.44 402.28 455.773C407.8 444.32 411.093 433.48 411.226 423.173C411.413 408.067 409.133 397.146 404.413 390.946C397.426 381.786 389.826 377.613 382.493 378.507C371.24 379.88 363.453 385.453 359.04 394.64L348.44 413.4Z" fill="#F7B49E"/>
<path d="M378.08 419.373V419.427C414.12 424.667 427.293 411.613 417.587 380.173C399.027 361.48 392.96 350.093 357.627 365.467C344.907 371 323.08 395.413 326.013 417.147C300.493 416.587 279.933 444.44 293.947 459.187C277.56 474.747 277 471.827 269.827 491.187C260.213 517.16 275.4 543.467 297.08 562.173C322.52 584.107 347.6 574.8 347.6 574.8C366.507 569.853 382.067 551.68 359.853 522.213C376.267 502.346 376.88 481.4 361.667 459.373C380.6 452.853 374.667 435.24 374.667 435.24C371.507 425.84 378.08 419.373 378.08 419.373V419.4V419.373" fill="black"/>
<path d="M742.453 190.853L742.427 190.893L742.44 190.867V190.88L742.453 190.867V190.88V190.907C731.493 190.867 689.787 221.24 682.067 229.693C674.333 238.16 680.467 244.853 680.48 256.787L703.493 1268.43C703.507 1280.36 707.893 1291.79 715.653 1300.21C723.427 1308.64 733.947 1313.36 744.907 1313.35L1037.71 1312.69L1299.68 1337.05C1322.49 1337 1371.79 1291.81 1371.73 1266.95C1370.97 922.787 1370.23 578.64 1369.47 234.48C1369.43 209.613 1350.87 189.52 1328.05 189.56L742.453 190.853V190.867V190.853V190.867V190.853L742.44 190.867L742.453 190.853ZM742.587 254.947L742.573 254.987L742.587 254.96L742.573 255.093L742.587 254.96V255.093V255L1035.39 254.293L1328.2 253.667L1330.27 1201.31C1306.03 1201.35 1267.41 1201.45 1267.41 1201.45C1116.23 1201.79 744.653 1202.6 744.653 1202.6L742.587 254.947V254.96V254.947V254.96V254.947V254.96V254.947" fill="#3345AB"/>
<path d="M707.146 218.48V218.493L707.106 218.6C696.186 218.507 685.68 223.267 677.946 231.72C670.226 240.187 665.893 251.653 665.906 263.6L668.186 1296.05C668.213 1307.99 672.6 1319.43 680.36 1327.85C688.12 1336.28 698.64 1341 709.6 1340.97L1002.4 1340.33L1295.21 1339.68C1318.04 1339.64 1336.49 1319.44 1336.44 1294.57C1335.67 950.413 1334.92 606.267 1334.17 262.12C1334.12 237.267 1315.57 217.147 1292.76 217.213L707.146 218.48V218.493V218.48ZM707.28 282.56L707.266 282.587L707.28 282.6L1000.09 281.92L1292.89 281.32L1294.96 1228.93C1270.72 1228.99 1232.11 1229.05 1232.11 1229.05C1080.92 1229.41 709.36 1230.25 709.36 1230.25L707.28 282.56V282.6V282.56Z" fill="#8294D2"/>
<path d="M993.947 253.146C993.96 259.8 988.573 265.213 981.907 265.226C975.253 265.24 969.853 259.853 969.84 253.2C969.813 246.546 975.2 241.146 981.867 241.12C988.52 241.106 993.92 246.493 993.947 253.146Z" fill="white"/>
<path d="M1090.28 252.213C1090.28 255.68 1087.48 258.493 1084.01 258.506C1080.55 258.506 1077.72 255.706 1077.72 252.24C1077.71 248.773 1080.52 245.96 1083.99 245.946C1087.45 245.946 1090.27 248.746 1090.28 252.213Z" fill="white"/>
<path d="M830.32 657.747L1729.55 527.64L1644.72 939.253L949.094 918.013L830.32 657.747" fill="#F7A0AE"/>
<path d="M921.653 848.2L1596.35 1003.23L1757.23 621.146L856.786 574.6L921.653 848.2ZM1597.84 1008.65C1597.67 1008.65 1597.47 1008.64 1597.27 1008.6L918.999 852.746C918.066 852.533 917.333 851.8 917.12 850.88L851.12 572.506C850.933 571.733 851.133 570.92 851.64 570.32C852.133 569.72 852.826 569.386 853.693 569.413L1761.07 616.306C1761.87 616.36 1762.61 616.786 1763.05 617.48C1763.49 618.186 1763.56 619.04 1763.24 619.787L1600.16 1007.12C1599.76 1008.07 1598.84 1008.65 1597.84 1008.65" fill="#3345AB"/>
<path d="M1017.56 744.626V777H1035.32C1042.31 777 1047.59 775.653 1051.16 772.973C1054.72 770.293 1056.51 766.066 1056.51 760.28C1056.51 754.973 1054.69 751.04 1051.05 748.466C1047.41 745.906 1041.89 744.626 1034.48 744.626H1017.56ZM1017.56 731.066H1033.64C1040.64 731.066 1045.73 729.96 1048.96 727.746C1052.17 725.52 1053.77 721.76 1053.77 716.453C1053.77 711.653 1052.04 708.173 1048.57 706.026C1045.09 703.88 1039.59 702.813 1032.04 702.813H1017.56V731.066ZM1000.85 688.826H1031.2C1045.27 688.826 1055.44 690.88 1061.72 694.986C1067.99 699.08 1071.12 705.56 1071.12 714.426C1071.12 720.386 1069.59 725.346 1066.51 729.306C1063.43 733.28 1059 735.773 1053.21 736.8V737.493C1060.4 738.84 1065.68 741.52 1069.05 745.493C1072.44 749.48 1074.12 754.88 1074.12 761.68C1074.12 770.866 1070.92 778.053 1064.51 783.253C1058.11 788.453 1049.19 791.053 1037.77 791.053H1000.85V688.826Z" fill="white"/>
<path d="M1095.37 791.053V688.826H1112.09V791.053H1095.37Z" fill="white"/>
<path d="M1180.89 735.6H1218.51V786.92C1212.35 788.933 1206.44 790.347 1200.77 791.187C1195.12 792.027 1189 792.453 1182.43 792.453C1166.95 792.453 1155.01 787.867 1146.63 778.707C1138.24 769.547 1134.04 756.626 1134.04 739.946C1134.04 723.48 1138.77 710.613 1148.24 701.306C1157.69 692.013 1170.72 687.36 1187.32 687.36C1198 687.36 1208.11 689.413 1217.67 693.52L1211.79 707.427C1203.49 703.6 1195.2 701.693 1186.91 701.693C1176 701.693 1167.37 705.12 1161.03 711.973C1154.69 718.826 1151.52 728.2 1151.52 740.08C1151.52 752.573 1154.37 762.067 1160.09 768.573C1165.8 775.08 1174.01 778.32 1184.73 778.32C1190.15 778.32 1195.92 777.653 1202.07 776.293V749.933H1180.89V735.6" fill="white"/>
<path d="M1339.19 763.293C1339.19 772.387 1335.89 779.52 1329.32 784.693C1322.75 789.867 1313.68 792.453 1302.12 792.453C1290.56 792.453 1281.11 790.653 1273.73 787.067V771.267C1278.4 773.453 1283.35 775.173 1288.6 776.44C1293.84 777.693 1298.72 778.32 1303.24 778.32C1309.87 778.32 1314.75 777.066 1317.89 774.546C1321.04 772.026 1322.61 768.653 1322.61 764.413C1322.61 760.586 1321.16 757.347 1318.28 754.693C1315.39 752.04 1309.41 748.893 1300.37 745.253C1291.05 741.48 1284.48 737.173 1280.67 732.32C1276.84 727.467 1274.93 721.64 1274.93 714.84C1274.93 706.306 1277.96 699.6 1284.01 694.706C1290.08 689.813 1298.21 687.36 1308.41 687.36C1318.2 687.36 1327.95 689.507 1337.64 693.8L1332.33 707.427C1323.24 703.6 1315.13 701.693 1308 701.693C1302.59 701.693 1298.49 702.867 1295.69 705.227C1292.89 707.587 1291.49 710.693 1291.49 714.56C1291.49 717.213 1292.05 719.493 1293.17 721.373C1294.29 723.266 1296.13 725.053 1298.69 726.72C1301.27 728.4 1305.88 730.613 1312.55 733.373C1320.05 736.493 1325.55 739.4 1329.04 742.106C1332.53 744.813 1335.11 747.867 1336.73 751.267C1338.36 754.667 1339.19 758.68 1339.19 763.293" fill="white"/>
<path d="M1407.77 748.266L1398.19 720.426C1397.49 718.573 1396.52 715.626 1395.29 711.626C1394.05 707.613 1393.2 704.68 1392.73 702.813C1391.48 708.546 1389.64 714.813 1387.21 721.626L1377.99 748.266H1407.77ZM1422.39 791.053L1412.17 762.666H1373.09L1363.09 791.053H1345.48L1383.72 688.413H1401.89L1440.15 791.053H1422.39" fill="white"/>
<path d="M1453.64 791.053V688.826H1470.35V776.72H1513.63V791.053H1453.64Z" fill="white"/>
<path d="M1589.07 791.053H1531.24V688.826H1589.07V702.96H1547.96V730.786H1586.48V744.76H1547.96V776.853H1589.07V791.053Z" fill="white"/>
</svg>
